<svg width="335" height="335" viewBox="0 0 335 335" fill="none" xmlns="http://www.w3.org/2000/svg">
<path d="M216.354 181.458C203.397 181.458 190.971 186.606 181.809 195.768C172.647 204.929 167.5 217.356 167.5 230.313M167.5 230.313V244.271M167.5 230.313C167.5 217.356 162.353 204.929 153.191 195.768C144.029 186.606 131.603 181.458 118.646 181.458M167.5 244.271C167.5 257.228 172.647 269.654 181.809 278.816C190.971 287.978 203.397 293.125 216.354 293.125C229.311 293.125 241.737 287.978 250.899 278.816C260.061 269.654 265.208 257.228 265.208 244.271V219.146M167.5 244.271C167.5 257.228 162.353 269.654 153.191 278.816C144.029 287.978 131.603 293.125 118.646 293.125C105.689 293.125 93.2627 287.978 84.1008 278.816C74.9389 269.654 69.7917 257.228 69.7917 244.271V219.146" stroke="#2563EB" stroke-width="25" stroke-linecap="round" stroke-linejoin="round"/>
<path d="M244.271 223.333C257.228 223.333 269.654 218.186 278.816 209.024C287.978 199.862 293.125 187.436 293.125 174.479C293.125 161.522 287.978 149.096 278.816 139.934C269.654 130.772 257.228 125.625 244.271 125.625H237.292" stroke="#2563EB" stroke-width="25" stroke-linecap="round" stroke-linejoin="round"/>
<path d="M265.208 129.813V90.7292C265.208 77.7722 260.061 65.346 250.899 56.1841C241.737 47.0221 229.311 41.875 216.354 41.875C203.397 41.875 190.971 47.0221 181.809 56.1841C172.647 65.346 167.5 77.7722 167.5 90.7292M90.7292 223.333C77.7722 223.333 65.346 218.186 56.1841 209.024C47.0221 199.862 41.875 187.436 41.875 174.479C41.875 161.522 47.0221 149.096 56.1841 139.934C65.346 130.772 77.7722 125.625 90.7292 125.625H97.7083" stroke="#2563EB" stroke-width="25" stroke-linecap="round" stroke-linejoin="round"/>
<path d="M69.7917 129.813V90.7292C69.7917 77.7722 74.9389 65.346 84.1008 56.1841C93.2627 47.0221 105.689 41.875 118.646 41.875C131.603 41.875 144.029 47.0221 153.191 56.1841C162.353 65.346 167.5 77.7722 167.5 90.7292V230.312" stroke="#2563EB" stroke-width="25" stroke-linecap="round" stroke-linejoin="round"/>
</svg>
